<?xml version="1.0" standalone="no"?>
<!DOCTYPE svg PUBLIC "-//W3C//DTD SVG 20010904//EN"
 "http://www.w3.org/TR/2001/REC-SVG-20010904/DTD/svg10.dtd">
<svg version="1.0" xmlns="http://www.w3.org/2000/svg"
 width="260.000000pt" height="260.000000pt" viewBox="0 0 260.000000 260.000000"
 preserveAspectRatio="xMidYMid meet">
<metadata>
Created by potrace 1.11, written by Peter Selinger 2001-2013
</metadata>
<g transform="translate(0.000000,260.000000) scale(0.100000,-0.100000)"
fill="#000000" stroke="none">
<path d="M1238 2243 c-67 -63 -66 -62 -154 -143 -186 -170 -243 -222 -247
-223 -3 -1 -27 17 -54 39 -26 23 -51 43 -55 45 -3 2 -48 -34 -98 -81 -51 -47
-101 -92 -110 -100 -9 -8 -61 -55 -115 -105 -53 -49 -109 -101 -124 -114 -14
-13 -73 -68 -131 -121 -58 -54 -116 -107 -129 -118 l-25 -19 30 -29 c38 -37
134 -125 254 -234 117 -107 126 -115 246 -226 55 -50 121 -112 149 -137 l49
-45 52 45 c29 25 54 46 57 47 4 1 60 -49 216 -193 14 -13 64 -58 110 -100 47
-42 94 -86 105 -99 28 -31 41 -28 94 22 26 25 56 53 68 63 12 10 70 63 129
118 59 55 113 105 120 110 6 6 29 27 51 48 l40 37 55 -49 55 -49 49 45 c28 25
99 91 160 147 60 55 134 124 164 151 30 28 65 59 76 70 30 28 200 183 243 221
l35 32 -30 28 c-16 16 -76 72 -133 124 -57 52 -115 106 -129 119 -14 13 -66
60 -115 105 -49 44 -101 92 -116 106 -151 140 -203 184 -209 181 -3 -2 -28
-22 -54 -45 -27 -22 -52 -40 -55 -38 -4 2 -49 42 -101 90 -52 48 -106 98 -120
111 -14 12 -66 60 -115 105 -50 44 -98 89 -108 99 -18 17 -21 16 -80 -40z
m118 -71 c28 -26 98 -90 155 -142 57 -52 129 -119 159 -148 l55 -52 -30 -27
c-16 -14 -75 -68 -131 -120 -56 -51 -114 -104 -130 -118 l-29 -25 -45 45 c-25
25 -52 45 -60 45 -8 0 -35 -20 -60 -45 l-45 -45 -26 23 c-14 12 -70 62 -123
112 -54 49 -113 102 -132 118 -19 16 -34 33 -34 37 0 4 75 77 168 161 92 84
185 170 207 191 22 21 42 38 45 38 3 0 28 -22 56 -48z m-593 -311 l28 -29 -53
-49 c-29 -27 -78 -73 -108 -101 l-55 -52 65 -63 c61 -58 228 -211 271 -248 18
-16 14 -21 -103 -131 -68 -63 -149 -138 -180 -166 l-57 -51 110 -102 110 -103
-30 -28 c-36 -34 -35 -35 -134 58 -53 50 -112 104 -296 273 -14 13 -70 64
-125 114 -54 50 -105 96 -113 102 -18 13 -27 3 112 130 54 50 107 98 117 108
10 9 73 68 141 129 67 62 140 129 162 149 58 55 99 89 105 89 3 0 18 -13 33
-29z m1135 12 c10 -10 69 -65 132 -123 63 -58 137 -126 165 -151 52 -49 70
-65 226 -207 53 -48 94 -91 91 -97 -2 -5 -36 -39 -76 -74 -39 -36 -93 -85
-121 -111 -27 -25 -82 -75 -120 -110 -39 -36 -120 -110 -179 -165 -150 -137
-140 -132 -177 -97 l-31 29 110 102 110 102 -46 42 c-26 23 -56 51 -68 62 -33
31 -200 185 -223 204 -21 18 -20 19 57 92 90 85 143 133 224 206 l56 51 -109
103 -110 103 28 27 c34 33 38 34 61 12z m-986 -151 c87 -81 161 -149 206 -188
l33 -29 -58 -55 c-32 -30 -73 -68 -90 -84 l-32 -29 -118 109 c-65 60 -136 126
-158 147 l-40 37 85 80 c47 43 88 79 92 80 5 0 41 -31 80 -68z m948 -12 l85
-80 -45 -43 c-25 -23 -77 -71 -115 -106 -39 -35 -89 -81 -113 -104 l-43 -40
-32 30 c-18 16 -58 53 -90 83 l-57 54 32 29 c18 16 80 73 137 126 129 120 143
131 150 131 3 -1 44 -37 91 -80z m-525 -180 l29 -31 -26 -24 c-34 -31 -47 -31
-77 1 l-24 25 28 29 c16 17 32 30 35 30 3 0 19 -14 35 -30z m-108 -97 l35 -27
-58 -53 -59 -54 59 -51 58 -52 -32 -28 c-18 -15 -35 -28 -39 -28 -3 0 -44 36
-91 80 l-85 80 85 80 c47 44 86 80 88 80 2 0 19 -12 39 -27z m276 -56 l86 -78
-42 -37 c-23 -20 -62 -56 -87 -79 -24 -24 -48 -43 -52 -43 -4 0 -21 13 -38 29
l-31 28 58 52 58 51 -58 53 -59 53 34 26 c18 15 36 26 39 25 4 -1 45 -37 92
-80z m-163 -46 l35 -29 -35 -31 c-19 -17 -37 -31 -40 -31 -3 0 -21 14 -40 31
l-35 31 35 29 c19 15 37 28 40 28 3 0 21 -13 40 -28z m-274 -155 l86 -80 -38
-34 c-22 -19 -88 -80 -148 -136 -60 -55 -115 -105 -123 -110 -11 -6 -27 3 -57
31 -22 22 -61 58 -86 82 l-45 42 89 82 c49 45 119 110 155 144 36 34 69 61 73
60 4 -1 47 -38 94 -81z m681 -22 c54 -50 121 -112 148 -137 l50 -46 -45 -43
c-25 -23 -64 -59 -86 -81 -30 -28 -46 -37 -57 -31 -8 5 -63 55 -123 110 -60
56 -126 117 -147 136 l-39 35 88 81 c53 48 93 78 100 74 7 -4 56 -48 111 -98z
m-415 -87 l-32 -32 -32 33 -33 32 33 30 33 30 31 -31 32 -30 -32 -32z m-30
-97 c10 0 21 6 25 13 5 6 24 26 43 44 l35 32 35 -30 c19 -17 80 -72 134 -122
55 -51 111 -102 125 -115 l26 -24 -56 -51 c-234 -219 -360 -332 -369 -332 -8
0 -204 176 -370 332 l-55 51 26 24 c14 13 69 64 123 113 54 50 115 105 134
122 l37 33 45 -45 c25 -25 53 -45 62 -45z"/>
</g>
</svg>
